<?xml version="1.0"?>
<svg width="687" height="916" xmlns="http://www.w3.org/2000/svg" xmlns:svg="http://www.w3.org/2000/svg">
 <g class="layer">
  <title>Layer 1</title>
  <path d="m300,224c1.743,-3.168 2.092718,-1.27015 5.657718,-1.53915c0.346,3.448 3.706564,1.786877 7.817564,2.703877c4.895,1.092 9.207718,1.694273 13.694718,0.265273c6.11,-1.947 12.479,-4.077 18.83,-5.105c5.935,-0.961 10.433,-0.527 16,-3.325c-1.506,-5.265 0.657841,-1.692441 0.067114,-8.013423c-0.590727,-6.320982 -1.707114,-2.331577 -1.270114,-7.005577c0.379,-4.059 -3.699,-7.602 -5.423,-10.996c-5.293,-10.422 -13.778,-19.145 -15.374,-30.985l-3,0c-0.653,-6.559 -1.935,-19.771 -6.572,-24.686c-3.726,-3.951 -14.891,-5.284 -17.994,0.03c-2.372,4.062 -1.838,10.129 -2.632,14.656c-1.519,8.663 -4.246,17.186 -5.502,26c-0.661,4.64 0.163,9.391 -0.779,14c-1.892,9.255 -9.247,16.897 -11.123,26c-1.221,5.922 2.411,7.831 7.602,8m-86,-1c-3.801,-1.693 -6.453,-5.126 -10.222,-6.778c-7.262,-3.182 -14.977,-3.29 -21.472,-8.666c-5.421,-4.487 -11.014,-13.391 -19.195,-10.223c-4.618,1.789 -7.288,11.308 -4.389,15.334c1.356,1.883 4.237,1.741 5.778,3.583c2.52,3.012 2.005,8.007 4.194,11.361c1.613,2.47 4.342,4.047 6,6.472c1.631,2.384 1.532,5.406 2.945,7.917c4.792,8.52 10.276,16.556 15.111,25.028c2.673,4.683 5.569,9.256 8.167,13.972c1.591,2.889 3.153,6.936 6.472,8.333c4.674,1.969 9.283,-5.082 12.222,-7.75c8.89,-8.068 17.312,-16.22 25.778,-24.639c2.547,-2.532 7.312,-4.821 7.389,-8.944c0.057,-3.063 -2.683,-5.59 -4.806,-7.389c-6.505,-5.512 -15.595,-5.643 -22.166,-10.639c-3.12,-2.372 -3.869,-7.005 -7.112,-9.028c-2.667,-1.664 -4.147,-0.496 -4.694,2.056m289,-10c-5.308418,2.916436 -7.386282,1.768423 -10.057282,3.153423c-4.662,2.417 -5.564718,5.603577 -10.046718,8.141577c-14.568,8.248 -31.627,11.299 -45.892,19.962c-5.687,3.454 -8.952581,0.820881 -5.436581,8.222881c1.938,4.079 3.886004,10.125555 6.146436,12.116841c2.260431,1.991287 6.372423,5.040141 9.287423,6.338141c9.842,4.383 18.434722,6.081137 23.998722,17.065137c6.59,-0.525 5.018,-5.29 8.188,-9.83c7.4,-10.597 16.209,-25.09 17.812,-38.17l-4.297229,2.267003c-0.053,6.363 -4.778338,7.826105 -4.778338,14.214105c0,4.493 -3.324227,6.010663 -5.333227,10.182663c-1.856,3.853 -9.471489,18.032726 -6.113489,22.865726c3.928,5.653 20.021719,-1.176369 23.309283,-9.529497c3.287564,-8.353128 0.329,-20.806 3.525,-31c1.145,-3.653 3.32,-6.562 4.889,-10c5.289,-11.588 9.799,-23.232 9.799,-36c-5.6,0.625 -9.691582,7.083564 -15,10z" fill="#d6ef60" id="svg_3"/>
  <path d="m312,214c0.809,4.657 3.69,4.895 8,5c-0.809,-4.657 -3.69,-4.895 -8,-5m190,18c5.61,-1.926 5.982,-7.781 6,-13c-7.08,1.191 -7.096,7.072 -6,13z" fill="#c6c5c5" id="svg_4"/>
  <path d="m244,469c-0.53,2.987 -1.49,6.885 0.859,9.397c1.956,2.091 5.561,1.602 8.141,1.603c7.254,0.003 13.733,-1.695 21,-1.184c5.004,0.351 10.039,-1.172 15,-1.646c5.93,-0.567 12.047,-0.17 18,-0.17c15.285,0 30.732,-0.654 46,0.039c6.095,0.277 11.822,1.957 18,1.961l0,-3c8.789,0 20.401,2.028 28.871,-0.317c4.812,-1.332 6.483,-6.204 12.129,-6.628c5.788,-0.435 13.998,-1.651 16,4.945c-5.169,0.774 -10.343,2.65 -15,5c3.418,6.036 9.274,3.89 15,1.96c7.442,-2.509 14.821,-8.159 19.961,-14.08c3.321,-3.824 5.679,-9.37 10.039,-11.88c0.556,-4.155 2.971,-6.433 4.456,-10.17c4.758,-11.972 13.942,-23.173 16.285,-36c1.521,-8.331 -2.72,-19.734 6.259,-24.83c0,-7.664 1.11,-16.284 -0.259,-23.83c-1.696,-9.346 -6.685,-18.143 -11.151,-26.336c-9.452,-17.341 -21.748,-33.217 -37.59,-45.532c-3.271,-2.542 -7.418,-3.382 -10.711,-5.901c-4.278,-3.273 -7.907,-7.331 -12.378,-10.406c-10.645,-7.324 -22.686,-11.983 -34.872,-15.814c-5.902,-1.855 -9.585,-4.163 -16.039,-4.181c-1.74,-9.518 -11.834,-9.999 -20,-10c-20.237,-0.001 -36.468,13.758 -55.285,19.29c-4.067,1.196 -8.544,0.81 -12.545,2.245c-11.217,4.023 -18.926,12.699 -27.495,20.33c-2.807,2.5 -7.476,3.693 -9.663,6.703c-1.561,2.149 -1.818,5.122 -3.271,7.417c-3.726,5.885 -8.363,10.826 -11.713,17.015c-2.874,5.309 -4.357,11.291 -7.16,16.557c-1.734,3.259 -5.005,5.185 -6.683,8.497c-3.015,5.953 -3.207,12.61 -5.275,18.857c-1.377,4.162 -3.941,7.876 -5.226,12.089c-2.007,6.575 -3.191,14.185 -3.854,21c-1.147,11.784 -4.574,27.353 -1.261,38.961c2.045,7.166 7.588,12.915 11.168,19.208c6.267,11.018 12.419,20.01 26.262,22.273c5.086,0.831 8.991,-3.078 14.001,-3.442z" fill="#d6ef60" id="svg_5"/>
  <path d="m435,249c0.527,4.143 0.972,11.403 6.271,12.338c3.328,0.587 4.26,-2.839 5.609,-5.053c2.796,-4.592 7.244,-6.652 8.12,-12.285c-6.981,1.026 -12.981,5.251 -20,5m-222,-4c-0.899,2.123 -0.876,2.101 -3,3c2.105,1.179 5.167,2.837 7.677,2.052c5.772,-1.803 -2.729,-4.944 -4.677,-5.052m257,13c-8.91,1.492 0.26,9.319 5.721,5.968c3.433,-2.106 4.314,-8.36 5.279,-11.968c-5.468,0.004 -9.994,-0.306 -11,6m-158,6c6.937,-0.298 14.127,-0.214 16,-8c-6.301,0.549 -13.361,1.725 -16,8m86,6c5.616,7.493 10.017,13.965 20,14c-0.755,-4.35 -3.343,-4.418 -6.715,-6.673c-4.859,-3.25 -7.074,-7.124 -13.285,-7.327m-9,33c0.839,2.885 2.115,3.289 5,4c-0.987,-2.853 -2.064,-3.373 -5,-4m54,0c1.596,7.75 3.937,16.316 13,17c-0.837,-5.543 -4.92,-8.729 -6,-14c-2.297,-0.674 -2.774,-0.965 -4,-3l-3,0z" fill="#c6c5c5" id="svg_6"/>
  <path d="m156,341c0.294,-1.612 0.786,-3.365 0.683,-5.02c-0.677,-10.88 -15.877,-2.084 -21.684,-1.985c-9.913,0.171 -19.273,2.107 -28.999,3.68c-7.195,1.164 -13.841,0.774 -21,2.864c-4.9096,1.433 -9.2782,4.568 -14.1698,5.966c-4.8865,1.397 -10.7905,0.404 -15.8294,0.5c-1.8838,0.035 -4.6911,-0.184 -5.929,1.598c-1.8309,2.636 0.9577,6.056 3.037,7.504c2.695,1.875 5.7098,1.544 8.7214,2.362c4.2109,1.144 8.2674,3.612 12.1652,5.519c3.2894,1.609 5.2385,5.028 8.3032,6.409c4.4268,1.994 10.7294,-0.122 15.7014,1.357c6.854,2.039 14.255,3.599 20.91,6.116c6.876,2.601 13.821,5.974 21.105,7.32c5.844,1.079 15.043,5.723 20.837,3.207c5.01,-2.176 2.554,-10 3.607,-14.227c2.63,-10.553 8.926,-20.222 10.353,-31.17c0.485,-3.723 0.619,-9.405 -3.091,-11.566c-10.099,-5.886 -8.097,7.474 -14.721,9.566m356,64c5.174,-1.375 9.395,-4.943 14.424,-6.91c5.008,-1.958 10.49,-2.021 15.576,-4.105c4.463,-1.828 7.755,-5.213 12.039,-7.17c3.773,-1.723 8.098,-2.154 11.961,-3.742c4.8,-1.973 9.064,-4.966 14,-6.69c5.758,-2.011 12.098,-3.129 17.576,-5.85c9.013,-4.477 19.172111,-7.425657 24.459784,-14.006551c5.287672,-6.580895 2.988781,-5.025557 -5.638784,-9.208449c-8.627565,-4.182892 -4.081,-2.207 -6.398,-2.353c-5.223,-0.329 -9.759,-0.868 -14.999,-0.251c-7.359,0.868 -13.802,-0.77 -21,-1.54c-4.261,-0.457 -8.693,0.358 -12.911,-0.437c-4.499,-0.848 -8.387,-3.118 -13.089,-3.566c-4.685,-0.446 -9.318,0.732 -14,0.829l-3.778338,1.473551c-7.466,-1.448 -8.855438,-0.992443 -16.458438,-0.992443c-1.061,-3.628 -9.552224,-3.557108 -10.522224,1.601892c-0.958,5.092 5.117,8.901 5.68,13.917c1.315,11.708 3.224,23.117 3.338,35c0.049,5.057 -1.906,8.942 -0.259,14z" fill="#d6ef60" id="svg_7"/>
  <path d="m360,351l8,-1c-1.87,-6.156 -7.062,-4.88 -8,1m111,-3c-2.047,6.994 2.372,10.479 3.241,17c0.842,6.323 -0.241,13.574 -0.241,20c12.152,-8.024 5.009,-27.488 -1,-37l-2,0m53,2l1,5c5.024,-1.015 8.026,-0.654 13,0c-1.133,-6.79 -8.539,-5 -14,-5m78,2c-3.322,0 -6.69,-0.151 -10,0.17c-3.66,0.354 -8.751,0.748 -11.397,3.634c-1.64,1.789 -2.198,5.514 0,7.153c2.094,1.56 5.216,0.218 7.397,-0.407c5.691,-1.631 12.951,-4.119 14,-10.55m-153,1c0.277,5.404 1.326,11.283 7,13c-0.004,-6.251 0.107,-11.531 -7,-13m156,11c5.63,-0.066 11.923,-1.748 13,-8c-4.785,0.53 -11.343,3.233 -13,8m-145,-1c-0.104,3.585 -0.937,6.594 -2,10c3.011,1.228 5.792,2.429 9,3c-0.05,-5.94 -0.623,-11.155 -7,-13m94.089,2.554c-2.653,0.708 -11.55,2.927 -13.003,5.03c-1.298,1.88 0.36,3.77 2.063,4.519c3.307,1.453 7.536,0.281 10.851,-0.582c3.014,-0.785 10.165,-2.441 11.248,-5.877c1.553,-4.926 -8.904,-3.691 -11.159,-3.09m-126.089,4.446l-1,1c1.137,4.154 2.292,7.617 6,10c-0.562,1.801 -0.824,3.122 -1,5l2,0c-0.156,-5.389 -0.997,-13.242 -6,-16m-9,29l-3,7l9,0c-0.255,-4.607 -1.217,-6.619 -6,-7z" fill="#c6c5c5" id="svg_8"/>
  <path d="m396,411l-2,15l7,-2c-1.644,-4.616 0.164,-11.28 -5,-13m6,12c3.771,-1.19 4.569,-3.172 5,-7c-4.474,0.714 -5.733,2.549 -5,7m9,-3c0.067,1.203 -0.052,2.739 0.434,3.896c3.004,7.151 13.36,-2.242 6.419,-4.54c-0.87,-0.288 -1.927,-0.103 -2.813,-0.05c-1.333,0.079 -2.735,0.453 -4.04,0.694m34,15c-2.226,5.201 -2.784,10.839 -4.919,15.83c-1.138,2.661 -4.027,5.632 -1.327,8.424c3.207,3.316 6.756,-0.761 8.687,-3.234c5.15,-6.596 5.914,-12.851 6.559,-21.02l-9,0m-157,31l0,-5c-3.412,-0.903 -7.31,-2.635 -10.891,-1.678c-2.251,0.601 -4.863,3.569 -2.462,5.651c2.74,2.376 9.939,1.027 13.353,1.027m-30,3l5,0c-1.277,-3.844 -3.723,-3.844 -5,0z" fill="#c6c5c5" id="svg_10"/>
  <path d="m184,558c-3.537,6.116 -11.763,5.007 -17.83,3.546c-2.525,-0.608 -5.159,-2.15 -7.78,-0.938c-3.507,1.622 -7.266,10.482 -5.782,14.093c1.98,4.819 8.458,6.906 11.917,10.469c3.175,3.269 4.782,8.665 6.475,12.83c4.79,-0.113 13.71,-1.68 15.253,-7.301c0.892,-3.247 -2.225,-5.734 -0.475,-9.084c3.396,-6.504 10.558,-11.189 17.222,-13.615c-0.01,-3.763 -0.313,-7.3 -1,-11c12.164,0.001 23.778,3 36,3c0.199,8.193 4.51,8.724 11,12c-2.705,1.044 -6.247,1.874 -8.441,3.843c-2.161,1.94 -2.501,5.529 -5.668,6.345c-3.777,0.973 -8.984,-3.167 -11.82,1.385c-2.318,3.72 2.628,8.031 3.511,11.466c0.656,2.554 0.107,5.381 1.276,7.813c0.687,1.429 1.761,2.408 3.331,2.741c2.499,0.528 5.26,-0.515 7.811,-0.384c6.298,0.324 12.942,2.24 18.715,-1.339c4.581,-2.84 10.511,-8.471 4.285,-12.87c1.261,-5.281 0.929,-13.557 5.43,-17.397c2.91,-2.483 8.032,-1.603 11.57,-1.603c9.633,0 18.552,0.051 28,2c-0.652,2.809 -1.22,6.157 -3.51,8.157c-5.051,4.411 -14.159,6.579 -11.858,15.839c2.642,10.63 24.047,10.058 32.368,8.338c3.199,-0.661 7.189,-1.413 8.972,-4.478c2.673,-4.595 -2.223,-15.974 -6.12,-18.862c-1.917,-1.42 -7.788,-2.651 -7.221,-5.913c0.83,-4.771 9.021,-4.08 12.369,-4.081c12.993,-0.006 25.956,-1 39,-1c2.147,7.472 11.395,9.996 16,16c-3.694,1.87 -6.263,6.231 -0.941,8.397c6.04,2.457 13.645,-0.571 19.941,1.032c3.255,0.829 6.348,3.96 9.892,2.771c3.501,-1.175 8.233,-9.186 6.036,-12.686c-1.381,-2.202 -4.672,-2.312 -6.928,-2.849c-6.885,-1.639 -12.139,-2.803 -13,-10.665c-7.206,-3.68 -1.888,-7.885 4,-7.995c13.989,-0.263 28.008,-0.005 42,-0.005c5.66,-9.68 17.672,5.933 25,7l0,4c-10.791,1.685 -5.226,11.376 2.09,13.986c5.254,1.875 13.602,0.837 16.887,-4.259c1.471,-2.283 1.205,-4.953 3.341,-6.924c2.524,-2.329 6.953,-2.662 8.596,-5.929c2.036,-4.051 -3.273,-5.919 -5.915,-7.467c-7.571,-4.437 -24.806,-14.912 -9.998,-22.168c13.949,-6.835 23.307,9.246 34.999,13.904c3.598,1.433 7.376,0.521 11,-0.259c2.592,-0.558 6.415,-0.495 8.397,-2.487c3.611,-3.629 2.985,-12.496 -0.17,-15.948c-5.114,-5.592 -10.758,-7.976 -17.227,-11.515c-4.594,-2.514 -7.624,-4.684 -13,-4.934l0,-3c-3.752,-0.119 -5.944,-0.8 -9,-3c6.711,-1.599 12.718,-0.493 13,-9c-6.76,-1.685 -13.421,-4.288 -20.17,-5.727c-4.181,-0.891 -8.603,-0.688 -12.815,-1.598c-2.446,-0.528 -4.703,-2.105 -7.185,-2.353c-4.366,-0.437 -7.342,3.579 -11.83,2.869c-8.439,-1.335 -15.585,-7.324 -24,-8.191c-1.182,-4.04 -4.535,-3.462 -8,-5c-8.043,-3.57 -18.007,-6.514 -26,-1l1,-3c-3.584,1.22 -14.976,11.302 -8.681,14.917c3.553,2.041 8.573,-2.217 11.681,-3.588c4.019,-1.772 9.717,-1.931 13.996,-0.935c5.167,1.204 6.709,6.087 11.047,8.431c4.512,2.438 10.155,1.311 14.787,3.4c5.105,2.302 8.133,7.895 13.263,9.896c7.066,2.756 15.436,2.611 22.737,4.334c11.472,2.708 22.054,6.529 32.259,12.339c4.717,2.685 10.185,3.126 12.911,8.206c-9.769,-1.937 -17.519,-6.42 -28,-5.961c-9.073,0.398 -19.753,2.675 -27.711,7.135c-3.038,1.703 -5.114,4.975 -8.379,6.227c-3.353,1.285 -7.399,0.379 -10.91,0.773c-3.625,0.407 -6.547,2.219 -10,3.102c-4.373,1.119 -9.88,-0.523 -14,-2.021c-2.861,-1.041 -6.596,-3.108 -9.681,-1.647c-4.955,2.346 0.889,8.062 2.681,10.392c-10,0 -20,0.047 -30,-0.001c-3.501,-0.017 -7.539,-1.181 -10.961,-0.596c-2.67,0.456 -4.522,2.639 -7.129,3.284c-4.942,1.222 -9.929,-1.3 -14.871,-0.456c-2.991,0.512 -5.186,2.71 -8.078,3.506c-7.864,2.164 -17.831,2.088 -25.961,2.248c-8.547,0.168 -17.491,-1.006 -26,-1.815c-3.97,-0.378 -8.066,0.257 -12,-0.433c-5.151,-0.904 -10.007,-3.542 -15.17,-4.478c-4.545,-0.824 -9.267,0.218 -13.83,-0.472c-3.478,-0.526 -6.722,-2.26 -10,-3.467c-10.609,-3.905 -20.039,-3.376 -31,-4.395c-4.994,-0.464 -10.319,-0.604 -12,-5.925l3,0c-0.315,-9.593 -8.838,-6.454 -16,-7.171c-15.23,-1.522 -28.402,-7.829 -44,-7.829c7.653,-6.686 19.629,-5.262 29,-6.059c3.781,-0.321 6.42,-2.797 10,-3.628c5.445,-1.263 11.415,-0.276 17,-1.313c0.948,-12.269 16.023,-2.203 23.851,-5.603c3.166,-1.375 3.198,-4.975 0.576,-6.963c-2.347,-1.78 -5.659,-1.428 -8.427,-1.434l-8,0c4.324,-4.433 11.206,-4.316 17,-5.513c6.138,-1.268 11.969,-3.935 18,-5.188c4.131,-0.859 8.795,-0.299 13,-0.299c-1.071,-6.506 -10.316,-11.271 -16.729,-9.437c-7.135,2.041 -12.724,6 -19.31,9.026c-4.415,2.028 -9.432,2.527 -13.961,4.21c-4.426,1.644 -10.231,5.379 -15.035,5.392c-4.658,0.013 -13.562,-6.606 -16.031,-10.4c-1.61,-2.475 -1.391,-5.831 -3.523,-7.987c-3.005,-3.038 -7.377,-3.273 -11.241,-4.255c-2.378,-0.604 -4.386,-1.684 -6.899,-1.036c-4.572,1.179 -11.391,4.02 -13.414,8.591c-1.213,2.742 -0.796,5.996 -1.371,8.896c-0.678,3.419 -2.203,7.188 1.239,9.682c4.331,3.139 12.242,0.854 17.27,1.427c2.849,0.324 5.709,1.577 5.709,4.891c0,4.162 -4.51,5.201 -7.704,6.14c-6.088,1.791 -17.711,4.615 -19.369,11.909c-1.063,4.675 3.8,5.811 7.369,5.932c6.401,0.215 19.113,-3.304 23.958,2.896c1.828,2.339 -1.09,3.934 -2.563,5.294c-2.417,2.231 -4.242,6.352 -1.777,9.256c3.183,3.751 10.03,2.573 14.382,2.573z" fill="#ff0000" id="svg_11"/>
  <path d="m151,500c2.798,-0.474 6.157,-2.056 8.985,-1.296c3.135,0.841 4.975,3.933 8.105,4.863c2.875,0.855 6.971,-0.099 8.864,2.867c1.721,2.696 -0.379,6.764 -0.954,9.566c6.587,-0.005 8.501,-2.224 14,-5c-1.893,-6.529 -8.13,-6.338 -12.62,-10.495c-3.26,-3.018 -3.869,-7.99 -7.524,-10.611c-8.68,-6.227 -16.962,1.969 -18.856,10.106z" fill="#c6c5c5" id="svg_12"/>
  <path d="m261,506c5.112,-0.018 10.179,-3.245 15.001,-2.577c8.265,1.145 16.522,6.357 24.956,6.414c5.313,0.036 8.066,-5.821 14.028,-5.443c5.038,0.32 8.759,4.39 14.03,4.587c3.69,0.138 8.117,0.559 11.7,-0.455c4.396,-1.244 7.426,-3.763 12.284,-3.427c3.691,0.255 5.998,2.062 9.171,3.642c3.14,1.563 6.742,1.611 9.83,3.348c3.473,1.953 6.04,5.253 10,6.335c2.301,0.628 8.161,0.712 7.338,-3.189c-0.643,-3.045 -4.996,-3.568 -7.252,-4.838c-3.259,-1.835 -5.146,-5.28 -8.375,-7.079c-2.39,-1.331 -5.106,-1.114 -7.711,-1.573c-6.223,-1.099 -11.53,-4.061 -18,-3.702c-4.964,0.276 -9.062,3.665 -14,3.567c-8.798,-0.175 -17.198,-3.907 -26,-3.566c-4.423,0.171 -7.859,3.633 -12.039,3.603c-7.927,-0.059 -14.205,-8.326 -22,-8.573c-6.58,-0.208 -12.036,6.948 -12.961,12.926z" fill="#ff0000" id="svg_13"/>
  <path d="m486,511l0,2l6,0l0,-2l-6,0z" fill="#c6c5c5" id="svg_14"/>
  <path d="m240,523c-1,1.932 -4.383,5.098 -2.863,7.415c2.12,3.234 7.243,0.316 9.953,-0.156c7.792,-1.355 16.903,0.923 24.91,0.726c7.168,-0.175 14.874,-1.316 22,-2.169c3.742,-0.448 7.164,-1.94 11,-1.628c9.034,0.736 16.828,6.953 25.999,6.793c8.635,-0.151 17.115,-5.618 26.016,-5.908c7.907,-0.258 16.801,4.018 23.985,6.834c5.356,2.099 15.398,4.415 20.996,2.504c2.753,-0.94 4.57,-3.544 7.289,-4.425c4.849,-1.571 9.484,3.388 10.715,-3.986c-4.385,-2.206 -7.468,-7.422 -12.985,-6.612c-7.114,1.044 -8.536,9.742 -17.015,8.09c-8.398,-1.637 -15.569,-7.094 -24,-8.269c-8.855,-1.234 -19.216,-0.651 -28,0.806c-3.388,0.563 -6.541,2.145 -10,2.196c-10.438,0.153 -20.632,-5.228 -31,-5.948c-3.215,-0.223 -5.998,1.36 -9,2.223c-5.03,1.446 -10.81,2.709 -16,3.33c-10.74,1.285 -21.28,-1.816 -32,-1.816m49,37l0,-7l-7,0l0,-2c9.088,0.006 19.127,0.984 27.996,3.019c6.157,1.412 11.41,4.36 18.003,2.547c4.458,-1.225 6.133,-5.683 10.076,-7.48c5.083,-2.316 11.188,6.791 14.607,-2.03c0.334,-0.861 0.254,-2.224 0.318,-3.056c-5.978,-1.131 -13.898,-5.367 -19.945,-3.482c-5.482,1.708 -4.575,9.348 -11.07,9.138c-9.328,-0.302 -19.751,-3.389 -28.985,-5.116c-4.921,-0.92 -11.018,-2.908 -15.891,-0.682c-5.363,2.45 -3.509,10.005 0.204,13.222c3.335,2.889 7.539,2.906 11.687,2.92z" fill="#ff0000" id="svg_15"/>
  <path d="m180,549l0,3c7.578,0 14.617,-0.09 22,-2c-6.202,-2.603 -15.298,-1 -22,-1m288,10c3.708,7.572 14.061,12.343 22,14c-1.598,-4.794 -5.824,-4.89 -9.826,-7.188c-4.417,-2.535 -6.924,-5.857 -12.174,-6.812m-306,11c0.944,5.925 6.448,6.754 10,11c4.211,-1.175 6.001,-3.839 7,-8c-5.904,-1.994 -10.748,-2.999 -17,-3m73,23c1.206,5.63 13.211,5 18,5c-0.86,-2.025 -2.796,-4.646 -2.674,-6.912c0.132,-2.462 2.589,-4.13 3.676,-6.176c1.112,-2.092 1.429,-4.634 1.998,-6.912c-10.322,2.093 -9.315,16.386 -21,15z" fill="#c6c5c5" id="svg_16"/>
  <path d="m316,587c-1.201,2.434 -2.343,4.202 -5.019,5.259c-4.009,1.584 -7.397,-0.032 -8.981,4.741c4.278,0.883 9.605,3.055 13.895,1.257c5.752,-2.411 5.993,-9.468 0.105,-11.257z" fill="#c6c5c5" id="svg_18"/>
  <g id="svg_41" transform="matrix(0.596351 0 0 0.596351 674 406)"/>
  <g id="svg_42" transform="matrix(0.596351 0 0 0.596351 674 406)"/>
  <g id="svg_43" transform="matrix(0.596351 0 0 0.596351 674 406)"/>
  <g id="svg_44" transform="matrix(0.596351 0 0 0.596351 674 406)"/>
  <g id="svg_45" transform="matrix(0.596351 0 0 0.596351 674 406)"/>
  <g id="svg_46" transform="matrix(0.596351 0 0 0.596351 674 406)"/>
  <g id="svg_47" transform="matrix(0.596351 0 0 0.596351 674 406)"/>
  <g id="svg_48" transform="matrix(0.596351 0 0 0.596351 674 406)"/>
  <g id="svg_49" transform="matrix(0.596351 0 0 0.596351 674 406)"/>
  <g id="svg_50" transform="matrix(0.596351 0 0 0.596351 674 406)"/>
  <g id="svg_51" transform="matrix(0.596351 0 0 0.596351 674 406)"/>
  <g id="svg_52" transform="matrix(0.596351 0 0 0.596351 674 406)"/>
  <g id="svg_53" transform="matrix(0.596351 0 0 0.596351 674 406)"/>
  <g id="svg_54" transform="matrix(0.596351 0 0 0.596351 674 406)"/>
  <g id="svg_55" transform="matrix(0.596351 0 0 0.596351 674 406)"/>
 </g>

</svg>