<?xml version="1.0" encoding="iso-8859-1"?>
<!-- Generator: Adobe Illustrator 19.0.0, SVG Export Plug-In . SVG Version: 6.00 Build 0)  -->
<svg version="1.1" id="Layer_1" xmlns="http://www.w3.org/2000/svg" xmlns:xlink="http://www.w3.org/1999/xlink" x="0px" y="0px"
	 viewBox="0 0 512.003 512.003" style="enable-background:new 0 0 512.003 512.003;" xml:space="preserve">
<circle style="fill:#21D0C3;" cx="256.001" cy="255.998" r="255.998"/>
<path style="fill:#0F7986;" d="M446.418,427.089c-0.944-6.849-2.104-13.895-3.62-20.942c-7.408-34.426-17.992-53.304-17.992-58.859
	c0-5.552-3.175-18.878-8.466-37.756s-1.058-29.986-6.35-91.064s-13.758-65.519-28.577-71.073c-14.819-5.552-26.46,0-43.393-2.221
	c-16.936-2.221-43.393-5.552-49.745-11.106c-4.736-4.139-4.763-24.321-4.469-34.327c6.413-4.923,11.368-10.171,11.88-12.314
	c1.058-4.44,3.175-25.543,3.175-25.543l9.525-14.435c0,0,7.408-16.657,3.175-18.882c-4.234-2.218-9.093,8.652-9.093,8.652
	s5.917-24.196,4.859-31.97l-0.015-0.106C290.734,1.773,273.576,0,256.004,0c-14.845,0-29.388,1.278-43.541,3.704
	c-0.133,0.5-0.264,1.014-0.39,1.546c-2.119,8.884,2.117,29.986,2.117,29.986s-7.408-5.552-8.466,0
	c-1.061,5.552,5.292,18.878,9.525,19.991c5.292,3.329,7.408,14.435,7.408,19.989c0,5.552,8.466,21.101,8.466,21.101
	s1.949,1.568,5.005,3.647c0.284,10.076,0.228,30.001-4.476,34.111c-6.35,5.554-32.811,8.886-49.743,11.106
	c-16.936,2.221-28.575-3.329-43.396,2.221c-14.817,5.556-23.283,9.996-28.577,71.073c-5.292,61.078-1.058,72.186-6.35,91.064
	c-5.292,18.878-8.466,32.206-8.466,37.756c0,5.554-10.583,24.432-17.992,58.859c-2.073,9.628-3.481,19.259-4.575,28.376
	c10.512,10.802,21.967,20.679,34.237,29.498c1.182-4.112,2.855-8.506,5.265-13.174c10.321-19.991,18.258-64.132,23.814-81.623
	c5.556-17.491,15.081-37.48,15.081-41.645c0-4.163,2.381-69.962,9.525-83.288c7.146-13.326,11.114-11.663,11.114-11.663
	s3.968,19.157,1.588,39.147c-2.381,19.989-3.175,21.656,2.381,49.14c5.556,27.485,14.287,38.314,13.494,53.306
	c-0.793,14.993-4.761,8.33-13.494,28.318c-8.429,19.292-20.302,27.472-20.169,88.915c30.885,13.22,64.895,20.543,100.616,20.543
	c38.801,0,75.578-8.645,108.526-24.097c-0.326-58.212-11.902-66.45-20.163-85.363c-8.731-19.991-12.7-13.326-13.494-28.318
	c-0.793-14.991,7.939-25.818,13.494-53.306c5.558-27.483,4.765-29.15,2.383-49.14c-2.383-19.989,1.588-39.147,1.588-39.147
	s3.968-1.663,11.112,11.663c7.141,13.324,9.525,79.123,9.525,83.288s9.525,24.154,15.081,41.645
	c5.556,17.491,13.494,61.634,23.814,81.623c1.508,2.921,2.726,5.733,3.718,8.437c12.583-9.642,24.244-20.423,34.828-32.195
	L446.418,427.089z"/>
<path style="fill:#EEF3F7;" d="M25.464,144.602h461.08c16.303,33.679,25.448,71.47,25.448,111.398
	c0,25.592-3.773,50.299-10.762,73.615H10.775c-6.989-23.316-10.762-48.022-10.762-73.616c0-39.928,9.146-77.719,25.448-111.398
	L25.464,144.602L25.464,144.602z"/>
<path style="fill:#15BDB2;" d="M421.66,329.612c-1.38-5.682-3.177-12.425-5.323-20.08c-5.292-18.878-1.058-29.986-6.35-91.064
	s-13.758-65.519-28.577-71.073c-14.819-5.552-26.46,0-43.393-2.221l-4.37-0.573H186.278l-4.37,0.573
	c-16.936,2.221-28.575-3.329-43.396,2.221c-14.817,5.556-23.283,9.996-28.577,71.073c-5.292,61.078-1.058,72.186-6.35,91.064
	c-2.146,7.655-3.942,14.398-5.323,20.08h52.327c0.232-0.866,0.357-1.557,0.357-2.035c0-4.163,2.381-69.962,9.525-83.288
	c7.146-13.326,11.114-11.663,11.114-11.663s3.968,19.157,1.588,39.147c-2.381,19.989-3.175,21.656,2.381,49.14
	c0.626,3.102,1.296,5.99,1.984,8.698h164.84c0.69-2.708,1.356-5.596,1.984-8.698c5.558-27.483,4.765-29.15,2.383-49.14
	c-2.383-19.989,1.588-39.147,1.588-39.147s3.969-1.663,11.112,11.663c7.141,13.324,9.525,79.123,9.525,83.288
	c0,0.478,0.126,1.167,0.357,2.035h52.327L421.66,329.612L421.66,329.612z"/>
<path style="fill:#FEFEFE;" d="M25.464,144.602h461.08c0.77,1.588,1.521,3.186,2.258,4.792H23.206
	C23.943,147.788,24.694,146.189,25.464,144.602z M502.615,324.823c-0.447,1.603-0.908,3.199-1.384,4.789H10.775
	c-0.476-1.59-0.937-3.186-1.384-4.789h493.222H502.615z"/>
<g>
	<path style="fill:#EEF3F7;" d="M325.914,277.644c0.89-3.47,0.893-6.8,0.666-9.283c0.133-0.288,0.266-0.571,0.397-0.871
		c3.514-8.085,0.097-20.335-0.463-22.211c1.528-4.899,1.771-10.25,1.552-15.078c-0.324-7.181-2.575-11.044-4.345-13.006
		c0.877-5.182,0.223-10.418-1.645-16.061c-0.789-2.383-1.647-3.824-2.425-4.701c0.029-1.678-0.073-3.55-0.297-5.717
		c-0.58-5.549-2.855-9.218-4.861-11.448c0.319-1.133,0.505-2.258,0.505-3.36c0-5.625-7-9.765-10.753-11.586
		c0.326-0.928,0.47-1.669,0.403-2.123c-0.545-3.838-4.356-4.385-8.714-3.838c1.089,18.098-38.124,27.968-38.124,27.968
		s2.181,6.032,1.634,7.677c22.253-3.36,35.397-15.105,41.356-23.475c2.817,1.7,7.329,4.899,6.573,7.571
		c-8.169,18.646-49.018,21.936-49.018,21.936s2.181,7.677,0,8.226c8.169-0.549,27.777-3.838,38.124-9.871
		c6.224-3.629,11.646-8.248,14.989-13.026c0.91,2.332,1.641,5.804,0.807,10.286c-1.636,8.773-19.063,19.193-22.875,19.742
		c-3.813,0.549-28.865,0-28.865,0l-0.545,7.68c0,0,20.151,2.743,28.322,0.549c8.169-2.194,17.427-6.581,23.964-12.611
		c1.422-1.314,2.6-2.522,3.581-3.718c-0.405,4.732-1.455,11.205-4.125,16.878c-4.901,10.42-15.795,10.42-25.598,10.969
		c-9.803,0.549-26.143-8.775-26.143-8.775l0.545,7.128c0,0,8.169,3.838,13.07,6.581c4.901,2.743,18.517,4.387,29.41,0.549
		c8.413-2.965,14.865-10.177,18.123-16.09c6.672,15.116-5.865,25.55-14.312,29.801c-8.714,4.387-45.203-9.871-45.203-9.871
		l-1.634,5.483c0,0,10.348,3.292,14.159,4.934c3.813,1.645,15.249,9.322,33.767,6.032c6.645-1.182,11.161-3.929,14.228-7.509
		c5.248,9.498-4.328,16.541-11.504,20.67c-7.624,4.387-24.507-1.098-31.589-6.581c-7.08-5.485-17.972-10.969-17.972-10.969
		l-1.636,8.226c0,0,2.919,1.592,6.394,3.441c1.799,2.474,4.174,6.402,7.093,10.877c3.944,20.902,18.686,37.78,34.984,37.78
		c16.883,0,17.972-15.355,19.061-22.485c0.673-4.392-0.104-8.987-0.798-11.873C326.166,280.711,326.056,279.053,325.914,277.644
		L325.914,277.644L325.914,277.644z M323.232,284.512L323.232,284.512c-0.611,8.054-6.072,15.789-16.406,18.626
		c-5.605,1.342-13.032-5.739-19.16-13.313c4.385,4.077,10.038,6.877,18.071,7.281C314.394,297.54,319.946,291.049,323.232,284.512z
		 M306.825,282.3L306.825,282.3c5.858-0.56,9.994-2.137,13.154-4.712c-1.647,4.128-5.036,9.402-12.065,12.941
		c-8.379,3.867-19.208-6.455-25.913-14.371C288.501,279.095,298.63,283.088,306.825,282.3z M309.004,311.913L309.004,311.913
		c-11.028,2.297-22.315-12.51-28.127-21.661c5.964,7.527,13.209,14.536,21.592,17.273c9.959,3.253,16.294-5.208,20.638-12.188
		C321.939,301.414,318.586,309.583,309.004,311.913z"/>
	<path style="fill:#EEF3F7;" d="M190.341,282.49c-0.695,2.884-1.471,7.481-0.8,11.873c1.089,7.128,2.179,22.485,19.063,22.485
		c16.298,0,31.04-16.876,34.984-37.78c2.919-4.476,5.294-8.405,7.093-10.877c3.475-1.849,6.394-3.441,6.394-3.441l-1.634-8.226
		c0,0-10.892,5.483-17.972,10.969c-7.08,5.483-23.964,10.969-31.589,6.581c-7.177-4.13-16.75-11.172-11.504-20.67
		c3.067,3.578,7.582,6.328,14.228,7.509c18.517,3.29,29.955-4.387,33.767-6.032c3.813-1.645,14.159-4.934,14.159-4.934l-1.634-5.483
		c0,0-36.49,14.259-45.203,9.871c-8.446-4.251-20.984-14.684-14.312-29.801c3.259,5.913,9.708,13.127,18.123,16.09
		c10.892,3.838,24.509,2.194,29.41-0.549c4.901-2.743,13.07-6.581,13.07-6.581l0.545-7.128c0,0-16.338,9.322-26.143,8.775
		c-9.803-0.549-20.694-0.549-25.598-10.969c-2.668-5.673-3.718-12.146-4.125-16.878c0.981,1.195,2.159,2.403,3.581,3.718
		c6.535,6.032,15.795,10.42,23.964,12.611c8.169,2.194,28.321-0.549,28.321-0.549l-0.545-7.68c0,0-25.054,0.549-28.865,0
		c-3.812-0.549-21.239-10.969-22.875-19.742c-0.835-4.48-0.106-7.952,0.807-10.286c3.344,4.778,8.764,9.4,14.989,13.026
		c10.348,6.032,29.955,9.322,38.124,9.871c-2.181-0.549,0-8.226,0-8.226s-40.849-3.292-49.018-21.936
		c-0.759-2.67,3.755-5.869,6.572-7.571c5.962,8.37,19.105,20.115,41.356,23.475c-0.545-1.645,1.636-7.677,1.636-7.677
		s-39.213-9.871-38.124-27.968c-4.356-0.549-8.169,0-8.714,3.838c-0.064,0.454,0.077,1.195,0.403,2.123
		c-3.753,1.819-10.753,5.962-10.753,11.586c0,1.1,0.186,2.225,0.503,3.36c-2.004,2.232-4.28,5.898-4.859,11.448
		c-0.228,2.17-0.328,4.041-0.299,5.717c-0.776,0.877-1.636,2.317-2.423,4.701c-1.867,5.642-2.522,10.879-1.647,16.061
		c-1.773,1.962-4.022,5.826-4.345,13.006c-0.219,4.829,0.024,10.177,1.552,15.078c-0.56,1.878-3.975,14.126-0.463,22.211
		c0.13,0.297,0.264,0.582,0.397,0.871c-0.23,2.48-0.225,5.81,0.666,9.283C190.463,279.053,190.352,280.714,190.341,282.49z
		 M210.782,297.106L210.782,297.106c8.032-0.403,13.683-3.206,18.071-7.281c-6.125,7.573-13.557,14.655-19.16,13.313
		c-10.337-2.837-15.795-10.572-16.406-18.626C196.572,291.049,202.124,297.543,210.782,297.106z M234.516,276.155L234.516,276.155
		c-6.703,7.913-17.533,18.236-25.911,14.371c-7.029-3.539-10.42-8.811-12.067-12.941c3.162,2.575,7.298,4.152,13.156,4.712
		C217.886,283.086,228.015,279.091,234.516,276.155z M193.413,295.338L193.413,295.338c4.345,6.978,10.678,15.441,20.638,12.188
		c8.383-2.737,15.628-9.745,21.592-17.273c-5.81,9.15-17.098,23.958-28.127,21.661C197.932,309.586,194.581,301.414,193.413,295.338
		z"/>
	<path style="fill:#EEF3F7;" d="M254.904,171.975c0,0-8.169-7.08-10.348-7.08s-6.535,4.356-7.08,8.169
		c-0.545,3.813,2.179,8.169,5.446,9.803c3.268,1.634,5.99,2.723,5.99,2.723s0.545,67.535,2.179,70.257
		c1.634,2.726,8.169,9.258,8.169,9.258h-0.071c0,0,6.535-6.535,8.169-9.258c1.634-2.723,2.179-70.257,2.179-70.257
		s2.723-1.089,5.99-2.723c3.268-1.636,5.99-5.99,5.446-9.803c-0.545-3.813-4.901-8.169-7.08-8.169c-2.181,0-10.348,7.08-10.348,7.08
		s-3.47,2.449-8.645,0H254.904z"/>
</g>
<g>
</g>
<g>
</g>
<g>
</g>
<g>
</g>
<g>
</g>
<g>
</g>
<g>
</g>
<g>
</g>
<g>
</g>
<g>
</g>
<g>
</g>
<g>
</g>
<g>
</g>
<g>
</g>
<g>
</g>
</svg>
